<?xml version="1.0" encoding="utf-8"?>
<!-- Generator: Adobe Illustrator 21.1.0, SVG Export Plug-In . SVG Version: 6.00 Build 0)  -->
<svg version="1.1" id="Layer_1" xmlns="http://www.w3.org/2000/svg" xmlns:xlink="http://www.w3.org/1999/xlink" x="0px" y="0px"
	 viewBox="0 0 474 198" style="enable-background:new 0 0 474 198;" xml:space="preserve">
<style type="text/css">
	.st0{fill:url(#XMLID_4_);}
	.st1{fill:url(#XMLID_5_);}
	.st2{fill:url(#XMLID_6_);}
	.st3{fill:url(#XMLID_7_);}
	.st4{fill:#575756;}
	.st5{fill:url(#XMLID_8_);}
	.st6{fill:#0F445D;}
	.st7{font-family:'KlingonBlade';}
	.st8{font-size:194.932px;}
	.st9{opacity:0.75;}
	.st10{fill:#F7931E;}
</style>
<symbol  id="Pencil" viewBox="-7.8 -30.6 15.5 61.4">
	<g id="XMLID_2079_">
		<g id="XMLID_2080_">
			<g id="XMLID_2081_">
				
					<linearGradient id="XMLID_4_" gradientUnits="userSpaceOnUse" x1="9169.3174" y1="-20139.8457" x2="9173.9873" y2="-20143.2129" gradientTransform="matrix(-0.7804 -0.6253 0.6253 -0.7804 19756.2676 -9995.6465)">
					<stop  offset="0" style="stop-color:#C99341"/>
					<stop  offset="1" style="stop-color:#FBC076"/>
				</linearGradient>
				<rect id="XMLID_2082_" x="4.2" y="-30.6" class="st0" width="3.5" height="36.9"/>
				
					<linearGradient id="XMLID_5_" gradientUnits="userSpaceOnUse" x1="16513.5566" y1="-16789.8691" x2="16515.0195" y2="-16758.4492" gradientTransform="matrix(-1 2.000000e-04 -2.000000e-04 -1 16511.1602 -16787.377)">
					<stop  offset="0" style="stop-color:#DDA147"/>
					<stop  offset="1" style="stop-color:#FBC076"/>
				</linearGradient>
				<rect id="XMLID_2083_" x="-3.9" y="-30.6" class="st1" width="8.1" height="36.9"/>
				
					<linearGradient id="XMLID_6_" gradientUnits="userSpaceOnUse" x1="9180.8545" y1="-20148.9766" x2="9176.0264" y2="-20145.2539" gradientTransform="matrix(-0.7804 -0.6253 0.6253 -0.7804 19756.2676 -9995.6465)">
					<stop  offset="0" style="stop-color:#C99341"/>
					<stop  offset="1" style="stop-color:#FBC076"/>
				</linearGradient>
				<rect id="XMLID_2084_" x="-7.8" y="-30.6" class="st2" width="3.9" height="36.9"/>
			</g>
			<g id="XMLID_2085_">
				
					<linearGradient id="XMLID_7_" gradientUnits="userSpaceOnUse" x1="9154.8682" y1="-20156.2598" x2="9168.168" y2="-20166.1738" gradientTransform="matrix(-0.7804 -0.6253 0.6253 -0.7804 19756.2676 -9995.6465)">
					<stop  offset="0" style="stop-color:#D99E46"/>
					<stop  offset="0.5" style="stop-color:#FEE5C7"/>
					<stop  offset="1" style="stop-color:#E6B16E"/>
				</linearGradient>
				<path id="XMLID_2086_" class="st3" d="M-5.9,4.4c0.6,0,1.4-6.9,1.7-6.6c0.3,0.3,2,3.9,2.7,3.9c0.6,0,1.1-5.3,1.5-5.7
					c0.4-0.4,3,8.2,3.4,8.2c0.4,0,2-3.2,2.2-3.4c0.2-0.2,2.1,5.5,2.1,5.5L2.4,22c-0.4-3.1-1-6.4-1.4-4.8c-0.7,3.5-1,7.1-1.8,3.8
					C-1.9,16.2-3,19.9-3,22.8L-7.8,6.3C-7.8,6.3-6.5,4.4-5.9,4.4z"/>
				<path id="XMLID_2087_" class="st4" d="M-0.8,21c0.5,1.7,0.8,0.6,1.8-3.8c0.3-1.7,0.9,1.7,1.4,4.8c0,0-2.1,9.3-2.8,8.9
					c-0.8-0.4-2.5-8-2.5-8C-3,19.9-3.3,12.7-0.8,21z"/>
			</g>
			<g id="XMLID_2088_">
				
					<linearGradient id="XMLID_8_" gradientUnits="userSpaceOnUse" x1="9154.8682" y1="-20156.2598" x2="9168.168" y2="-20166.1738" gradientTransform="matrix(-0.7804 -0.6253 0.6253 -0.7804 19756.2676 -9995.6465)">
					<stop  offset="0" style="stop-color:#D99E46"/>
					<stop  offset="0.5" style="stop-color:#FEE5C7"/>
					<stop  offset="1" style="stop-color:#E6B16E"/>
				</linearGradient>
				<path id="XMLID_2089_" class="st5" d="M-5.9,4.4c0.6,0,1.4-6.9,1.7-6.6c0.3,0.3,2,3.9,2.7,3.9c0.6,0,1.1-5.3,1.5-5.7
					c0.4-0.4,3,8.2,3.4,8.2c0.4,0,2-3.2,2.2-3.4c0.2-0.2,2.1,5.5,2.1,5.5L2.4,22c-0.4-3.1-1-6.4-1.4-4.8c-0.7,3.5-1,7.1-1.8,3.8
					C-1.9,16.2-3,19.9-3,22.8L-7.8,6.3C-7.8,6.3-6.5,4.4-5.9,4.4z"/>
				<path id="XMLID_2090_" class="st4" d="M-0.8,21c0.5,1.7,0.8,0.6,1.8-3.8c0.3-1.7,0.9,1.7,1.4,4.8c0,0-2.1,9.3-2.8,8.9
					c-0.8-0.4-2.5-8-2.5-8C-3,19.9-3.3,12.7-0.8,21z"/>
			</g>
		</g>
	</g>
</symbol>
<g>
	<g id="XMLID_2190_">
		<text transform="matrix(0.6932 0 0 1 4.9099 166.6604)"><tspan x="0" y="0" class="st6 st7 st8">MEMI</tspan><tspan x="469.4" y="-1.9" class="st6 st7 st8">  </tspan><tspan x="577.8" y="0" class="st6 st7 st8">X</tspan></text>
	</g>
	<g id="XMLID_2189_">
		<g class="st9">
			<polygon points="321.6,25.3 412.4,110.1 321.6,170.9 			"/>
		</g>
		<g>
			<polygon class="st10" points="320.6,24.3 411.4,109.1 320.6,169.9 			"/>
		</g>
	</g>
	
		<use xlink:href="#Pencil"  width="15.5" height="61.4" id="XMLID_2191_" x="-7.8" y="-30.6" transform="matrix(3.2096 0 0 -2.8414 371.041 92.7372)" style="overflow:visible;"/>
</g>
</svg>
